<svg width="116" height="54" viewBox="0 0 116 54" fill="none" xmlns="http://www.w3.org/2000/svg">
<path d="M44 41H116C116 42.6569 114.657 44 113 44H47C45.3431 44 44 42.6569 44 41Z" fill="#49C2E8"/>
<path d="M0 3C0 1.34315 1.34315 0 3 0H41C42.6569 0 44 1.34315 44 3H0Z" fill="#EA4141"/>
<circle r="9" transform="matrix(-1 0 0 1 104.5 28.5)" stroke="#49C2E8" stroke-width="5"/>
<rect width="6" height="36" rx="3" transform="matrix(-1 0 0 1 98 4)" fill="#49C2E8"/>
<circle r="9" transform="matrix(-1 0 0 1 79.5 28.5)" stroke="#49C2E8" stroke-width="5"/>
<rect x="44" y="4" width="6" height="36" rx="3" fill="#49C2E8"/>
<rect x="46" y="19" width="18" height="5" rx="2.5" fill="#49C2E8"/>
<rect x="61" y="4" width="6" height="36" rx="3" fill="#49C2E8"/>
<rect y="4" width="6" height="36" rx="3" fill="#EA4141"/>
<rect y="4" width="20" height="6" rx="3" fill="#EA4141"/>
<rect y="19" width="16" height="5" rx="2.5" fill="#EA4141"/>
<rect y="34" width="21" height="6" rx="3" fill="#EA4141"/>
<circle cx="31.5" cy="28.5" r="9" stroke="#EA4141" stroke-width="5"/>
<rect x="38" y="4" width="6" height="36" rx="3" fill="#EA4141"/>
<path d="M5.55111 46.114L3.89911 49.299V51H2.91911V49.299L1.26011 46.114H2.36611L3.41611 48.347L4.45911 46.114H5.55111ZM8.7343 51.049C8.27697 51.049 7.85697 50.9417 7.4743 50.727C7.09163 50.5123 6.7883 50.216 6.5643 49.838C6.3403 49.4553 6.2283 49.0237 6.2283 48.543C6.2283 48.067 6.3403 47.64 6.5643 47.262C6.7883 46.8793 7.09163 46.5807 7.4743 46.366C7.85697 46.1513 8.27697 46.044 8.7343 46.044C9.1963 46.044 9.6163 46.1513 9.9943 46.366C10.377 46.5807 10.678 46.8793 10.8973 47.262C11.1213 47.64 11.2333 48.067 11.2333 48.543C11.2333 49.0237 11.1213 49.4553 10.8973 49.838C10.678 50.216 10.377 50.5123 9.9943 50.727C9.61163 50.9417 9.19163 51.049 8.7343 51.049ZM8.7343 50.174C9.0283 50.174 9.2873 50.1087 9.5113 49.978C9.7353 49.8427 9.9103 49.6513 10.0363 49.404C10.1623 49.1567 10.2253 48.8697 10.2253 48.543C10.2253 48.2163 10.1623 47.9317 10.0363 47.689C9.9103 47.4417 9.7353 47.2527 9.5113 47.122C9.2873 46.9913 9.0283 46.926 8.7343 46.926C8.4403 46.926 8.17897 46.9913 7.9503 47.122C7.7263 47.2527 7.5513 47.4417 7.4253 47.689C7.2993 47.9317 7.2363 48.2163 7.2363 48.543C7.2363 48.8697 7.2993 49.1567 7.4253 49.404C7.5513 49.6513 7.7263 49.8427 7.9503 49.978C8.17897 50.1087 8.4403 50.174 8.7343 50.174ZM13.2784 46.114V49.138C13.2784 49.4693 13.3647 49.7237 13.5374 49.901C13.7101 50.0737 13.9527 50.16 14.2654 50.16C14.5827 50.16 14.8277 50.0737 15.0004 49.901C15.1731 49.7237 15.2594 49.4693 15.2594 49.138V46.114H16.2464V49.131C16.2464 49.5463 16.1554 49.8987 15.9734 50.188C15.7961 50.4727 15.5557 50.6873 15.2524 50.832C14.9537 50.9767 14.6201 51.049 14.2514 51.049C13.8874 51.049 13.5561 50.9767 13.2574 50.832C12.9634 50.6873 12.7301 50.4727 12.5574 50.188C12.3847 49.8987 12.2984 49.5463 12.2984 49.131V46.114H13.2784ZM20.0633 51L18.9853 49.096H18.5233V51H17.5433V46.114H19.3773C19.7553 46.114 20.0773 46.1817 20.3433 46.317C20.6093 46.4477 20.8076 46.6273 20.9383 46.856C21.0736 47.08 21.1413 47.332 21.1413 47.612C21.1413 47.934 21.0479 48.2257 20.8613 48.487C20.6746 48.7437 20.3969 48.921 20.0283 49.019L21.1973 51H20.0633ZM18.5233 48.361H19.3423C19.6083 48.361 19.8066 48.298 19.9373 48.172C20.0679 48.0413 20.1333 47.8617 20.1333 47.633C20.1333 47.409 20.0679 47.2363 19.9373 47.115C19.8066 46.989 19.6083 46.926 19.3423 46.926H18.5233V48.361ZM96.047 48.55C96.047 48.0693 96.1544 47.64 96.369 47.262C96.5884 46.8793 96.8847 46.583 97.258 46.373C97.636 46.1583 98.0584 46.051 98.525 46.051C99.071 46.051 99.5494 46.191 99.96 46.471C100.371 46.751 100.658 47.1383 100.821 47.633H99.694C99.582 47.3997 99.4234 47.2247 99.218 47.108C99.0174 46.9913 98.784 46.933 98.518 46.933C98.2334 46.933 97.979 47.0007 97.755 47.136C97.5357 47.2667 97.363 47.4533 97.237 47.696C97.1157 47.9387 97.055 48.2233 97.055 48.55C97.055 48.872 97.1157 49.1567 97.237 49.404C97.363 49.6467 97.5357 49.8357 97.755 49.971C97.979 50.1017 98.2334 50.167 98.518 50.167C98.784 50.167 99.0174 50.1087 99.218 49.992C99.4234 49.8707 99.582 49.6933 99.694 49.46H100.821C100.658 49.9593 100.371 50.349 99.96 50.629C99.554 50.9043 99.0757 51.042 98.525 51.042C98.0584 51.042 97.636 50.937 97.258 50.727C96.8847 50.5123 96.5884 50.216 96.369 49.838C96.1544 49.46 96.047 49.0307 96.047 48.55ZM102.988 50.223H104.598V51H102.008V46.114H102.988V50.223ZM106.537 46.114V49.138C106.537 49.4693 106.623 49.7237 106.796 49.901C106.969 50.0737 107.211 50.16 107.524 50.16C107.841 50.16 108.086 50.0737 108.259 49.901C108.432 49.7237 108.518 49.4693 108.518 49.138V46.114H109.505V49.131C109.505 49.5463 109.414 49.8987 109.232 50.188C109.055 50.4727 108.814 50.6873 108.511 50.832C108.212 50.9767 107.879 51.049 107.51 51.049C107.146 51.049 106.815 50.9767 106.516 50.832C106.222 50.6873 105.989 50.4727 105.816 50.188C105.643 49.8987 105.557 49.5463 105.557 49.131V46.114H106.537ZM113.574 48.494C113.849 48.5453 114.076 48.683 114.253 48.907C114.43 49.131 114.519 49.3877 114.519 49.677C114.519 49.9383 114.454 50.1693 114.323 50.37C114.197 50.566 114.013 50.72 113.77 50.832C113.527 50.944 113.24 51 112.909 51H110.802V46.114H112.818C113.149 46.114 113.434 46.1677 113.672 46.275C113.915 46.3823 114.097 46.5317 114.218 46.723C114.344 46.9143 114.407 47.1313 114.407 47.374C114.407 47.6587 114.33 47.8967 114.176 48.088C114.027 48.2793 113.826 48.4147 113.574 48.494ZM111.782 48.13H112.678C112.911 48.13 113.091 48.0787 113.217 47.976C113.343 47.8687 113.406 47.717 113.406 47.521C113.406 47.325 113.343 47.1733 113.217 47.066C113.091 46.9587 112.911 46.905 112.678 46.905H111.782V48.13ZM112.769 50.202C113.007 50.202 113.191 50.146 113.322 50.034C113.457 49.922 113.525 49.7633 113.525 49.558C113.525 49.348 113.455 49.1847 113.315 49.068C113.175 48.9467 112.986 48.886 112.748 48.886H111.782V50.202H112.769Z" fill="#EA4141"/>
<path d="M28.7846 46.114L26.9926 51H25.8026L24.0106 46.114H25.0606L26.4046 49.999L27.7416 46.114H28.7846ZM30.7022 46.114V51H29.7222V46.114H30.7022ZM34.5404 51L33.4624 49.096H33.0004V51H32.0204V46.114H33.8544C34.2324 46.114 34.5544 46.1817 34.8204 46.317C35.0864 46.4477 35.2847 46.6273 35.4154 46.856C35.5507 47.08 35.6184 47.332 35.6184 47.612C35.6184 47.934 35.5251 48.2257 35.3384 48.487C35.1517 48.7437 34.8741 48.921 34.5054 49.019L35.6744 51H34.5404ZM33.0004 48.361H33.8194C34.0854 48.361 34.2837 48.298 34.4144 48.172C34.5451 48.0413 34.6104 47.8617 34.6104 47.633C34.6104 47.409 34.5451 47.2363 34.4144 47.115C34.2837 46.989 34.0854 46.926 33.8194 46.926H33.0004V48.361ZM40.1798 46.114V46.905H38.8778V51H37.8978V46.905H36.5958V46.114H40.1798ZM42.2108 46.114V49.138C42.2108 49.4693 42.2972 49.7237 42.4698 49.901C42.6425 50.0737 42.8852 50.16 43.1978 50.16C43.5152 50.16 43.7602 50.0737 43.9328 49.901C44.1055 49.7237 44.1918 49.4693 44.1918 49.138V46.114H45.1788V49.131C45.1788 49.5463 45.0878 49.8987 44.9058 50.188C44.7285 50.4727 44.4882 50.6873 44.1848 50.832C43.8862 50.9767 43.5525 51.049 43.1838 51.049C42.8198 51.049 42.4885 50.9767 42.1898 50.832C41.8958 50.6873 41.6625 50.4727 41.4898 50.188C41.3172 49.8987 41.2308 49.5463 41.2308 49.131V46.114H42.2108ZM49.4717 50.069H47.5257L47.2037 51H46.1747L47.9317 46.107H49.0727L50.8297 51H49.7937L49.4717 50.069ZM49.2057 49.285L48.4987 47.241L47.7917 49.285H49.2057ZM52.8164 50.223H54.4264V51H51.8364V46.114H52.8164V50.223ZM58.3973 50.223H60.0073V51H57.4173V46.114H58.3973V50.223ZM61.9602 46.905V48.13H63.6052V48.907H61.9602V50.202H63.8152V51H60.9802V46.107H63.8152V46.905H61.9602ZM68.0518 50.069H66.1058L65.7838 51H64.7548L66.5118 46.107H67.6528L69.4098 51H68.3738L68.0518 50.069ZM67.7858 49.285L67.0788 47.241L66.3718 49.285H67.7858ZM72.9365 51L71.8585 49.096H71.3965V51H70.4165V46.114H72.2505C72.6285 46.114 72.9505 46.1817 73.2165 46.317C73.4825 46.4477 73.6808 46.6273 73.8115 46.856C73.9468 47.08 74.0145 47.332 74.0145 47.612C74.0145 47.934 73.9212 48.2257 73.7345 48.487C73.5478 48.7437 73.2702 48.921 72.9015 49.019L74.0705 51H72.9365ZM71.3965 48.361H72.2155C72.4815 48.361 72.6798 48.298 72.8105 48.172C72.9412 48.0413 73.0065 47.8617 73.0065 47.633C73.0065 47.409 72.9412 47.2363 72.8105 47.115C72.6798 46.989 72.4815 46.926 72.2155 46.926H71.3965V48.361ZM79.4299 51H78.4499L76.2309 47.647V51H75.2509V46.107H76.2309L78.4499 49.467V46.107H79.4299V51ZM81.7283 46.114V51H80.7483V46.114H81.7283ZM87.2256 51H86.2456L84.0266 47.647V51H83.0466V46.107H84.0266L86.2456 49.467V46.107H87.2256V51ZM91.946 47.584C91.834 47.3787 91.68 47.2223 91.484 47.115C91.288 47.0077 91.0594 46.954 90.798 46.954C90.5087 46.954 90.252 47.0193 90.028 47.15C89.804 47.2807 89.629 47.4673 89.503 47.71C89.377 47.9527 89.314 48.2327 89.314 48.55C89.314 48.8767 89.377 49.1613 89.503 49.404C89.6337 49.6467 89.8134 49.8333 90.042 49.964C90.2707 50.0947 90.5367 50.16 90.84 50.16C91.2134 50.16 91.519 50.062 91.757 49.866C91.995 49.6653 92.1514 49.3877 92.226 49.033H90.546V48.284H93.192V49.138C93.1267 49.4787 92.9867 49.7937 92.772 50.083C92.5574 50.3723 92.2797 50.6057 91.939 50.783C91.603 50.9557 91.225 51.042 90.805 51.042C90.3337 51.042 89.9067 50.937 89.524 50.727C89.146 50.5123 88.8474 50.216 88.628 49.838C88.4134 49.46 88.306 49.0307 88.306 48.55C88.306 48.0693 88.4134 47.64 88.628 47.262C88.8474 46.8793 89.146 46.583 89.524 46.373C89.9067 46.1583 90.3314 46.051 90.798 46.051C91.3487 46.051 91.827 46.1863 92.233 46.457C92.639 46.723 92.919 47.0987 93.073 47.584H91.946Z" fill="#49C2E8"/>
</svg>
